<svg width="25" height="16" viewBox="0 0 25 16" fill="none" xmlns="http://www.w3.org/2000/svg">
<path d="M24.0054 5.91016H0.994515C0.446136 5.91016 0 6.35629 0 6.90467V12.678C0 13.2264 0.446136 13.6726 0.994515 13.6726H1.4085L0.919348 15.0531C0.817416 15.3407 0.968009 15.6565 1.25558 15.7584C1.31661 15.78 1.37889 15.7903 1.44013 15.7903C1.66755 15.7903 1.88063 15.6487 1.96092 15.4221L2.58084 13.6725H22.4192L23.0391 15.4221C23.1194 15.6487 23.3324 15.7903 23.5599 15.7903C23.6211 15.7903 23.6834 15.78 23.7444 15.7584C24.032 15.6565 24.1826 15.3407 24.0807 15.0531L23.5915 13.6726H24.0055C24.5539 13.6726 25 13.2264 25 12.678V6.90467C25 6.35629 24.5539 5.91016 24.0054 5.91016Z" fill="#72716E"/>
<path fill-rule="evenodd" clip-rule="evenodd" d="M2.27646 1.81575C2.27646 0.929435 2.99496 0.210938 3.88127 0.210938H21.12C22.0063 0.210938 22.7248 0.929434 22.7248 1.81574V3.52409C22.7248 4.4104 22.0063 5.1289 21.12 5.1289H21.0637C21.0106 4.26313 20.5824 3.62598 20.1368 3.26956C19.6747 2.89997 19.1113 2.69191 18.4878 2.69535C17.9256 2.6986 17.3952 2.87256 16.9679 3.217C16.5406 2.87256 16.0102 2.6986 15.448 2.69535C14.8245 2.69191 14.2612 2.89997 13.7989 3.26956C13.3556 3.62417 12.9294 4.25547 12.8902 5.12493C12.8902 5.12625 12.8901 5.12758 12.8901 5.1289H12.112L12.1119 5.12546C12.0727 4.256 11.6465 3.6247 11.2033 3.27009C10.7409 2.9005 10.1776 2.69244 9.55412 2.69588C8.99196 2.69913 8.46149 2.87309 8.03422 3.21753C7.60695 2.87309 7.07649 2.69913 6.51433 2.69588C5.89086 2.69244 5.32745 2.9005 4.86539 3.27009C4.41987 3.62644 3.99166 4.2634 3.93845 5.1289H3.88127C2.99495 5.1289 2.27646 4.4104 2.27646 3.52409V1.81575Z" fill="#72716E"/>
</svg>
