<svg width="52" height="50" viewBox="0 0 52 50" fill="none" xmlns="http://www.w3.org/2000/svg">
<g clip-path="url(#clip0_1_176)">
<path fill-rule="evenodd" clip-rule="evenodd" d="M30.3656 24.0177C30.9843 24.4706 31.8312 24.5263 32.7588 24.5563C33.9271 24.5986 35.246 24.7407 36.5817 24.9362C37.793 25.1124 39.2164 25.487 40.4052 25.9653C42.6178 26.8889 44.5612 28.0232 46.6718 30.2147C46.8023 30.3502 47.0041 30.4035 47.1795 30.3374C49.4655 29.4836 50.7869 27.823 51.3538 26.3563C51.9472 24.8279 52.0206 23.1738 51.4802 21.5454C50.9908 20.0771 50.0752 18.8393 48.7925 18.0187C49.3452 16.6031 49.3574 15.0647 48.8863 13.5909C48.3643 11.9563 47.3284 10.6618 45.9478 9.77199C44.5673 8.88215 42.3996 8.30186 39.9362 9.02503C37.5524 9.7228 35.0115 11.5035 33.4095 13.2521C31.698 15.1236 30.5634 17.2254 29.7601 19.2515C29.4549 20.0567 29.1547 21.1555 29.2589 22.0374C29.3729 22.8571 29.7116 23.5466 30.3656 24.0177ZM28.6386 29.2017C28.3975 29.9281 28.6061 30.748 28.8639 31.6366C29.1847 32.7574 29.4567 34.0513 29.6828 35.3779C29.889 36.5805 29.9712 38.045 29.8825 39.3202C29.6851 41.7033 29.203 43.896 27.7644 46.574C27.6752 46.7399 27.6867 46.9466 27.8043 47.0937C29.3254 48.9968 31.3179 49.7356 32.893 49.8206C34.5343 49.9092 36.1351 49.4687 37.5218 48.4525C38.7718 47.5362 39.6711 46.2848 40.0565 44.8147C41.5778 44.9027 43.0501 44.4382 44.3103 43.5362C45.7092 42.536 46.6249 41.1541 47.047 39.571C47.4691 37.9876 47.3529 35.7519 45.9009 33.6401C44.5 31.5968 42.0162 29.7393 39.8506 28.7602C37.5361 27.7163 35.1808 27.2903 32.9992 27.1547C32.1366 27.1143 30.9953 27.1693 30.1859 27.5405C29.439 27.9019 28.8859 28.436 28.6386 29.2017ZM23.1582 29.1663C22.3908 29.1624 21.6726 29.6134 20.9044 30.1326C19.9344 30.783 18.7836 31.4407 17.5876 32.0651C16.5038 32.6321 15.132 33.1624 13.8877 33.4724C11.5526 34.0218 9.31149 34.2423 6.3116 33.7061C6.12582 33.673 5.9321 33.7476 5.8281 33.9045C4.48222 35.9346 4.3929 38.0517 4.7985 39.571C5.22123 41.1543 6.13622 42.536 7.53451 43.5362C8.79516 44.4382 10.2667 44.9027 11.7889 44.8147C12.1752 46.2848 13.073 47.5362 14.3233 48.4525C15.7099 49.4687 17.3111 49.9092 18.9525 49.8206C20.5939 49.7319 22.6912 48.9305 24.2577 46.9021C25.7741 44.9415 26.779 42.0128 27.0445 39.6592C27.3253 37.1423 27.0037 34.7773 26.4588 32.6675C26.2309 31.8372 25.8259 30.7724 25.2214 30.12C24.6458 29.5236 23.9653 29.1645 23.1582 29.1663ZM25.9529 20.7785C26.5761 20.3321 26.891 19.5464 27.2064 18.6765C27.6077 17.5819 28.1508 16.3758 28.7501 15.17C29.2925 14.0763 30.0897 12.8433 30.9135 11.8637C32.4786 10.0513 34.1612 8.55979 36.9039 7.23601C37.0752 7.1541 37.1874 6.98012 37.1792 6.79231C37.0711 4.36142 35.8945 2.59638 34.671 1.60491C33.3946 0.57158 31.8395 -0.0101279 30.1184 -0.000492528C28.5666 0.00857134 27.1022 0.494954 25.9227 1.45796C24.7433 0.494954 23.2789 0.00857134 21.727 -0.000492528C20.0059 -0.0101279 18.4506 0.57158 17.1751 1.60491C15.8996 2.63825 14.6754 4.51548 14.6043 7.07422C14.5337 9.54861 15.4477 12.5067 16.6211 14.5663C17.878 16.7671 19.5329 18.4921 21.2179 19.8797C21.8918 20.4179 22.8476 21.0421 23.7214 21.2157C24.5387 21.361 25.3012 21.2529 25.9529 20.7785ZM21.4985 23.9606C21.2652 23.2317 20.6128 22.6905 19.8801 22.1228C18.9596 21.4041 17.9765 20.5165 17.0112 19.5756C16.1351 18.7236 15.2052 17.587 14.5249 16.5033C13.2792 14.4596 12.376 12.4035 11.9608 9.39394C11.9351 9.20755 11.804 9.04699 11.6219 8.99678C9.26887 8.34841 7.22129 8.91792 5.89702 9.77199C4.51688 10.6618 3.48137 11.9563 2.95892 13.5909C2.48766 15.0645 2.49928 16.6031 3.05354 18.0187C1.77026 18.8393 0.853636 20.0771 0.365651 21.5454C-0.175556 23.1738 -0.101125 24.8279 0.490655 26.3563C1.08244 27.8848 2.49541 29.6252 4.91494 30.4834C7.25433 31.3149 10.3592 31.3626 12.6872 30.8868C15.1755 30.3754 17.3327 29.3397 19.1776 28.1714C19.8995 27.6986 20.7902 26.9854 21.226 26.211C21.6173 25.4809 21.7497 24.7248 21.4985 23.9606Z" fill="white"/>
</g>
<defs>
<clipPath id="clip0_1_176">
<rect width="52" height="50" fill="white"/>
</clipPath>
</defs>
</svg>
