<svg width="25" height="16" viewBox="0 0 25 16" fill="none" xmlns="http://www.w3.org/2000/svg">
<path d="M24.0054 5.69922H0.994515C0.446136 5.69922 0 6.14536 0 6.69373V12.4671C0 13.0155 0.446136 13.4616 0.994515 13.4616H1.4085L0.919348 14.8422C0.817416 15.1298 0.968009 15.4456 1.25558 15.5475C1.31661 15.569 1.37889 15.5793 1.44013 15.5793C1.66755 15.5793 1.88063 15.4378 1.96092 15.2112L2.58084 13.4616H22.4192L23.0391 15.2112C23.1194 15.4378 23.3324 15.5793 23.5599 15.5793C23.6211 15.5793 23.6834 15.569 23.7444 15.5475C24.032 15.4455 24.1826 15.1297 24.0807 14.8422L23.5915 13.4616H24.0055C24.5539 13.4616 25 13.0155 25 12.4671V6.69373C25 6.14536 24.5539 5.69922 24.0054 5.69922Z" fill="white"/>
<path fill-rule="evenodd" clip-rule="evenodd" d="M2.27649 1.60469C2.27649 0.718375 2.99499 -0.00012207 3.8813 -0.00012207H21.12C22.0063 -0.00012207 22.7248 0.718375 22.7248 1.60469V3.31303C22.7248 4.19934 22.0063 4.91784 21.12 4.91784H21.0637C21.0107 4.05207 20.5824 3.41493 20.1368 3.0585C19.6747 2.68891 19.1113 2.48085 18.4878 2.4843C17.9257 2.48754 17.3952 2.6615 16.9679 3.00594C16.5407 2.6615 16.0102 2.48754 15.448 2.4843C14.8246 2.48085 14.2612 2.68891 13.7989 3.0585C13.3557 3.41311 12.9294 4.04441 12.8903 4.91387C12.8902 4.91519 12.8902 4.91652 12.8901 4.91784H12.112L12.1119 4.9144C12.0728 4.04494 11.6465 3.41364 11.2033 3.05903C10.741 2.68944 10.1776 2.48138 9.55415 2.48482C8.99199 2.48807 8.46152 2.66203 8.03425 3.00647C7.60699 2.66203 7.07652 2.48807 6.51436 2.48482C5.89089 2.48138 5.32748 2.68944 4.86542 3.05903C4.4199 3.41538 3.9917 4.05234 3.93848 4.91784H3.8813C2.99499 4.91784 2.27649 4.19934 2.27649 3.31303V1.60469Z" fill="white"/>
</svg>
